<?xml version="1.0" encoding="utf-8"?>
<!-- Generator: Adobe Illustrator 25.4.1, SVG Export Plug-In . SVG Version: 6.00 Build 0)  -->
<svg version="1.1" id="图层_1" xmlns="http://www.w3.org/2000/svg" xmlns:xlink="http://www.w3.org/1999/xlink" x="0px" y="0px"
	 viewBox="0 0 1920 1080" style="enable-background:new 0 0 1920 1080;" xml:space="preserve">
<style type="text/css">
	.st0{opacity:0.7;fill-rule:evenodd;clip-rule:evenodd;}
	.st1{fill-rule:evenodd;clip-rule:evenodd;}
	.st2{opacity:0.5;fill-rule:evenodd;clip-rule:evenodd;}
	.st3{opacity:0.8;fill-rule:evenodd;clip-rule:evenodd;}
	.st4{opacity:0.9;fill-rule:evenodd;clip-rule:evenodd;}
	.st5{opacity:0.2;fill-rule:evenodd;clip-rule:evenodd;}
</style>
<path id="シェイプ_1" class="st0" d="M76.6,29.7c1.7,7.3,14.2,11.2,14.2,11.2s-12.8-3-15.7,3.6c-1.4,3-3.4,5.7-5.8,8
	c3.9,2.1,8.8,4.5,13,6.8c3.6,2,14.8-6.9,14.8-6.9c-0.2,6.2-1.5,14.4,0.7,15.7c1.6,1,10.4,5.3,10.4,5.3c0.4-1.9,6.1-5.8,8-9.4
	c3.1-5.5-5.9-13.6-5.9-13.6s11.9,6.5,17.6,3.9c3.1-1.7,5.6-4.4,7.1-7.6c0.2-0.4,2.5-4.2,2.5-4.2s-5-4.4-6-5.5
	c-4.4-5.4-16.7-1.6-16.7-1.6s9.6-6,9.1-11.4c-0.5-5.5-3.7-7-4.5-9.5c-0.3-1-0.5-2-0.6-3c-1.3,0.9-7.3-0.7-12.7,2
	c-4.8,2.5-5.1,16.4-5.1,16.4S95.7,17,89.9,17.3c-3.8,0.3-7.6,1-11.3,1.9C79.2,21.5,76.2,27.8,76.6,29.7z"/>
<path id="シェイプ_1_00000131352287961471938840000015138697382954215300_" class="st1" d="M26.6,123
	c1.7,7.3,14.2,11.2,14.2,11.2s-12.8-3-15.7,3.6c-1.4,3-3.4,5.7-5.8,8c3.9,2.1,8.8,4.5,13,6.8c3.6,2,14.8-6.9,14.8-6.9
	c-0.2,6.2-1.5,14.4,0.7,15.7c1.6,1,10.4,5.3,10.4,5.3c0.4-1.9,6.1-5.8,8-9.4c3.1-5.5-5.9-13.6-5.9-13.6s11.9,6.5,17.6,3.9
	c3.1-1.7,5.6-4.4,7.1-7.6c0.2-0.4,2.5-4.2,2.5-4.2s-5-4.4-6-5.5c-4.4-5.4-16.7-1.6-16.7-1.6s9.6-6,9.1-11.4c-0.5-5.5-3.7-7-4.5-9.5
	c-0.3-1-0.5-2-0.6-3c-1.3,0.9-7.3-0.7-12.7,2c-4.8,2.5-5.1,16.4-5.1,16.4s-5.2-12.9-11.1-12.6c-3.8,0.3-7.6,1-11.3,1.9
	C29.1,114.8,26.1,121.1,26.6,123z"/>
<path id="シェイプ_1_00000091698991706980730760000002359338572940220855_" class="st2" d="M101.2,241.9c5.5,5.2,18,1.3,18,1.3
	s-12.3,4.6-11.1,11.7c0.5,3.3,0.4,6.6-0.4,9.9c4.4-0.5,9.9-1.2,14.6-1.6c4.2-0.3,8.4-14,8.4-14c3.3,5.3,6.8,12.8,9.3,12.7
	c1.9,0,11.6-1.4,11.6-1.4c-0.7-1.8,1.8-8.2,1.4-12.2c-0.5-6.2-12.5-8-12.5-8s13.5-1.2,16.8-6.6c1.6-3.1,2.2-6.7,1.6-10.2
	c-0.1-0.4-0.2-4.9-0.2-4.9s-6.6-0.9-8-1.3c-6.7-2-14.7,8-14.7,8s4.6-10.3,1.2-14.6c-3.4-4.3-7-3.8-9-5.3c-0.8-0.6-1.5-1.4-2.2-2.2
	c-0.6,1.5-6.5,3.5-9.4,8.8c-2.6,4.7,4.9,16.5,4.9,16.5s-11.6-7.8-16.2-4.3c-3,2.4-5.8,5-8.4,7.9C98.8,233.6,99.8,240.6,101.2,241.9z
	"/>
<path id="シェイプ_1_00000155830642204492178980000012241963660762389416_" class="st2" d="M112.5,417c5.5,5.2,18,1.3,18,1.3
	s-12.3,4.6-11.1,11.7c0.5,3.3,0.4,6.6-0.4,9.9c4.4-0.5,9.9-1.2,14.6-1.6c4.2-0.3,8.4-14,8.4-14c3.3,5.3,6.8,12.8,9.3,12.7
	c1.9,0,11.6-1.4,11.6-1.4c-0.7-1.8,1.8-8.2,1.4-12.2c-0.5-6.2-12.5-8-12.5-8s13.5-1.2,16.8-6.6c1.6-3.1,2.2-6.7,1.6-10.2
	c-0.1-0.4-0.2-4.9-0.2-4.9s-6.6-0.9-8-1.3c-6.7-2-14.7,8-14.7,8s4.6-10.3,1.2-14.6c-3.4-4.3-7-3.8-9-5.3c-0.8-0.6-1.5-1.4-2.2-2.2
	c-0.6,1.5-6.5,3.5-9.4,8.8c-2.6,4.7,4.9,16.5,4.9,16.5s-11.6-7.8-16.2-4.3c-3,2.4-5.8,5-8.4,7.9C110,408.7,111.1,415.7,112.5,417z"
	/>
<path id="シェイプ_1_00000109730384111619812580000016776294947609457289_" class="st1" d="M1796.1,56.7
	c-1.5,7.3,8.3,16.1,8.3,16.1s-10.4-8.1-15.8-3.3c-2.5,2.2-5.4,3.8-8.6,4.9c2.7,3.5,6.2,7.8,9,11.6c2.5,3.4,16.3-0.1,16.3-0.1
	c-2.7,5.6-7.3,12.5-5.9,14.6c1.1,1.6,7.3,9.1,7.3,9.1c1.1-1.5,7.9-2.8,11.2-5.2c5-3.7,0.2-14.8,0.2-14.8s8.1,10.8,14.5,10.8
	c3.5-0.3,6.9-1.7,9.6-4c0.3-0.3,4-2.7,4-2.7s-2.7-6.1-3.1-7.5c-1.7-6.7-14.6-8.3-14.6-8.3s11.2-1.5,13-6.6s-0.5-7.9-0.2-10.5
	c0.1-1,0.4-2,0.7-3c-1.6,0.3-6.4-3.7-12.4-3.4c-5.4,0.2-11.5,12.8-11.5,12.8s0.6-13.9-4.8-16.1c-3.6-1.3-7.3-2.3-11.1-3
	C1801.9,50.3,1796.5,54.8,1796.1,56.7z"/>
<path id="シェイプ_1_00000033346092920621265880000003605321448921206166_" class="st1" d="M1794.9,283.5
	c3.3,6.8,16.4,7.6,16.4,7.6s-13.2-0.1-14.5,7c-0.7,3.2-2,6.3-3.8,9.1c4.3,1.1,9.6,2.4,14.2,3.7c4,1.2,12.9-10.1,12.9-10.1
	c1.2,6.1,1.8,14.3,4.2,15.2c1.8,0.6,11.3,2.8,11.3,2.8c-0.1-1.9,4.6-7.1,5.7-10.9c1.7-6-8.9-11.9-8.9-11.9s13,3.6,18.1-0.2
	c2.7-2.4,4.5-5.5,5.1-9c0.1-0.4,1.5-4.6,1.5-4.6s-5.9-3.2-7.1-4c-5.5-4.3-16.6,2.3-16.6,2.3s8-8,6.3-13.2c-1.7-5.2-5.2-6-6.5-8.2
	c-0.5-0.9-0.9-1.8-1.3-2.8c-1.1,1.2-7.3,0.9-11.9,4.9c-4.1,3.5-1.3,17.2-1.3,17.2s-8-11.4-13.6-9.8c-3.6,1.2-7.2,2.7-10.6,4.4
	C1795.5,274.9,1794,281.8,1794.9,283.5z"/>
<path id="シェイプ_1_00000095334647367803892330000009036705536345673150_" class="st3" d="M1594.4,626.9
	c4.2,6.2,17.4,5.1,17.4,5.1s-13,1.9-13.3,9.1c-0.2,3.3-1,6.6-2.4,9.6c4.4,0.5,9.9,0.9,14.6,1.6c4.1,0.5,11.2-11.9,11.2-11.9
	c2.1,5.8,3.9,13.9,6.4,14.4c1.9,0.4,11.6,1.1,11.6,1.1c-0.3-1.9,3.5-7.7,4-11.6c0.8-6.2-10.5-10.4-10.5-10.4s13.4,1.7,17.8-2.9
	c2.3-2.7,3.6-6.1,3.8-9.7c0-0.4,0.8-4.8,0.8-4.8s-6.3-2.2-7.6-3c-6.1-3.4-16.1,4.7-16.1,4.7s6.7-9.1,4.2-14c-2.4-4.9-6-5.2-7.7-7.1
	c-0.7-0.8-1.2-1.7-1.7-2.6c-0.9,1.3-7.1,2-11.1,6.6c-3.6,4.1,1.3,17.2,1.3,17.2s-9.6-10.1-14.9-7.6c-3.4,1.7-6.7,3.7-9.9,5.9
	C1593.8,618.4,1593.3,625.3,1594.4,626.9z"/>
<path id="シェイプ_1_00000110454074092615637750000013245894774643696036_" class="st1" d="M1783.4,635.9
	c4.2,6.2,17.4,5.1,17.4,5.1s-13,1.9-13.3,9.1c-0.2,3.3-1,6.6-2.4,9.6c4.4,0.5,9.9,0.9,14.6,1.6c4.1,0.5,11.2-11.9,11.2-11.9
	c2.1,5.8,3.9,13.9,6.4,14.4c1.9,0.4,11.6,1.1,11.6,1.1c-0.3-1.9,3.5-7.7,4-11.6c0.8-6.2-10.5-10.4-10.5-10.4s13.4,1.7,17.8-2.9
	c2.3-2.7,3.6-6.1,3.8-9.7c0-0.4,0.8-4.8,0.8-4.8s-6.3-2.2-7.6-3c-6.1-3.4-16.1,4.7-16.1,4.7s6.7-9.1,4.2-14c-2.4-4.9-6-5.2-7.7-7.1
	c-0.7-0.8-1.2-1.7-1.7-2.6c-0.9,1.3-7.1,2-11.1,6.6c-3.6,4.1,1.3,17.2,1.3,17.2s-9.6-10.1-14.9-7.6c-3.4,1.7-6.7,3.7-9.9,5.9
	C1782.8,627.4,1782.3,634.3,1783.4,635.9z"/>
<path id="シェイプ_1_00000020357690286607637220000011663910354669025688_" class="st1" d="M167,507.8
	c-1.3,7.4,8.9,15.8,8.9,15.8s-10.6-7.7-15.9-2.8c-2.5,2.2-5.3,4-8.4,5.1c2.8,3.4,6.4,7.6,9.4,11.3c2.6,3.3,16.3-0.7,16.3-0.7
	c-2.6,5.7-6.9,12.7-5.4,14.8c1.1,1.6,7.6,8.9,7.6,8.9c1.1-1.6,7.9-3.1,11-5.6c4.9-3.9-0.3-14.8-0.3-14.8s8.5,10.6,14.8,10.4
	c3.5-0.4,6.8-1.9,9.4-4.3c0.3-0.3,3.9-2.9,3.9-2.9s-2.9-6-3.4-7.4c-2-6.7-14.8-7.9-14.8-7.9s11.1-1.8,12.8-7.1
	c1.7-5.2-0.7-7.9-0.5-10.5c0.1-1,0.3-2,0.6-3c-1.6,0.3-6.5-3.5-12.5-3c-5.4,0.4-11,13.2-11,13.2s0.1-13.9-5.4-15.9
	c-3.7-1.2-7.4-2-11.2-2.6C172.6,501.2,167.4,505.9,167,507.8z"/>
<path id="シェイプ_1_00000072978849621625317340000009648133431146022589_" class="st2" d="M1810.7,587.9
	c2.4,7.1,15.3,9.6,15.3,9.6s-13-1.7-15.2,5.2c-1.1,3.1-2.8,6-4.9,8.5c4.1,1.6,9.3,3.6,13.6,5.4c3.8,1.6,14-8.4,14-8.4
	c0.5,6.2,0,14.5,2.3,15.6c1.7,0.9,10.9,4.2,10.9,4.2c0.2-1.9,5.4-6.4,7-10.1c2.5-5.7-7.3-12.9-7.3-12.9s12.5,5.2,18,2
	c2.9-2,5.1-4.9,6.2-8.3c0.1-0.4,2.1-4.4,2.1-4.4s-5.5-3.9-6.5-4.9c-4.9-4.9-16.8,0.2-16.8,0.2s8.9-6.9,7.9-12.3
	c-1-5.4-4.4-6.6-5.5-9c-0.4-0.9-0.7-1.9-0.9-3c-1.2,1-7.4,0-12.5,3.4c-4.5,3-3.4,16.9-3.4,16.9s-6.6-12.3-12.3-11.4
	c-3.8,0.7-7.5,1.7-11.1,3C1812.4,579.5,1810.1,586.1,1810.7,587.9z"/>
<path id="シェイプ_1_00000071525126708717469740000008459287819937569410_" class="st4" d="M1762.3,815.8
	c5.7,4.9,18.1,0.4,18.1,0.4s-12.1,5.3-10.4,12.3c0.7,3.2,0.7,6.6,0.2,9.9c4.4-0.7,9.8-1.7,14.5-2.3c4.1-0.6,7.7-14.4,7.7-14.4
	c3.6,5.1,7.5,12.4,10,12.2c1.9-0.1,11.5-2,11.5-2c-0.8-1.7,1.3-8.3,0.8-12.3c-0.8-6.2-12.9-7.3-12.9-7.3s13.4-1.9,16.4-7.5
	c1.5-3.2,1.9-6.8,1.1-10.3c-0.1-0.4-0.5-4.8-0.5-4.8s-6.7-0.5-8.1-0.9c-6.8-1.7-14.3,8.8-14.3,8.8s4.1-10.5,0.4-14.6
	s-7.2-3.4-9.3-4.9c-0.8-0.6-1.6-1.3-2.3-2.1c-0.5,1.5-6.3,3.8-9,9.3c-2.4,4.9,5.8,16.2,5.8,16.2s-11.9-7.2-16.4-3.4
	c-2.9,2.6-5.5,5.3-8,8.3C1759.4,807.7,1760.8,814.6,1762.3,815.8z"/>
<path id="シェイプ_1_00000018199823794983961070000018269423161535922584_" class="st3" d="M198.4,809.8
	c0.8,7.5,12.8,12.8,12.8,12.8s-12.3-4.6-16,1.6c-1.8,2.8-4,5.3-6.7,7.2c3.6,2.5,8.2,5.6,12.1,8.3c3.4,2.5,15.5-5.1,15.5-5.1
	c-0.9,6.2-3.2,14.1-1.3,15.7c1.5,1.2,9.7,6.5,9.7,6.5c0.6-1.8,6.7-5.1,9.1-8.3c3.7-5.1-4.3-14.2-4.3-14.2s11,7.9,17.1,6
	c3.3-1.3,6.1-3.7,7.9-6.7c0.2-0.3,3-3.8,3-3.8s-4.5-5-5.2-6.2c-3.7-5.9-16.4-3.6-16.4-3.6s10.2-4.8,10.4-10.2
	c0.2-5.5-2.8-7.4-3.3-10c-0.2-1-0.3-2.1-0.2-3.1c-1.4,0.7-7.2-1.6-12.9,0.5c-5.1,1.9-7.1,15.7-7.1,15.7s-3.7-13.4-9.5-13.8
	c-3.8-0.1-7.7,0-11.5,0.5C202,801.9,198.2,807.9,198.4,809.8z"/>
<path id="シェイプ_1_00000113338223269986250750000011278853016996368061_" class="st1" d="M1226.7,860.9
	c2.4,7.1,15.3,9.6,15.3,9.6s-13-1.7-15.2,5.2c-1.1,3.1-2.8,6-4.9,8.5c4.1,1.6,9.3,3.6,13.6,5.4c3.8,1.6,14-8.4,14-8.4
	c0.5,6.2,0,14.5,2.3,15.6c1.7,0.9,10.9,4.2,10.9,4.2c0.2-1.9,5.4-6.4,7-10.1c2.5-5.7-7.3-12.9-7.3-12.9s12.5,5.2,18,2
	c2.9-2,5.1-4.9,6.2-8.3c0.1-0.4,2.1-4.4,2.1-4.4s-5.5-3.9-6.5-4.9c-4.9-4.9-16.8,0.2-16.8,0.2s8.9-6.9,7.9-12.3
	c-1-5.4-4.4-6.6-5.5-9c-0.4-0.9-0.7-1.9-0.9-3c-1.2,1-7.4,0-12.5,3.4c-4.5,3-3.4,16.9-3.4,16.9s-6.6-12.3-12.3-11.4
	c-3.8,0.7-7.5,1.7-11.1,3C1228.4,852.5,1226.1,859.1,1226.7,860.9z"/>
<path id="シェイプ_1_00000150792768446442982850000017285849806363592616_" class="st5" d="M1053.7,369.9
	c2.4,7.1,15.3,9.6,15.3,9.6s-13-1.7-15.2,5.2c-1.1,3.1-2.8,6-4.9,8.5c4.1,1.6,9.3,3.6,13.6,5.4c3.8,1.6,14-8.4,14-8.4
	c0.5,6.2,0,14.5,2.3,15.6c1.7,0.9,10.9,4.2,10.9,4.2c0.2-1.9,5.4-6.4,7-10.1c2.5-5.7-7.3-12.9-7.3-12.9s12.5,5.2,18,2
	c2.9-2,5.1-4.9,6.2-8.3c0.1-0.4,2.1-4.4,2.1-4.4s-5.5-3.9-6.5-4.9c-4.9-4.9-16.8,0.2-16.8,0.2s8.9-6.9,7.9-12.3s-4.4-6.6-5.5-9
	c-0.4-0.9-0.7-1.9-0.9-3c-1.2,1-7.4,0-12.5,3.4c-4.5,3-3.4,16.9-3.4,16.9s-6.6-12.3-12.3-11.4c-3.8,0.7-7.5,1.7-11.1,3
	C1055.4,361.5,1053.1,368.1,1053.7,369.9z"/>
<path id="シェイプ_1_00000015355331678860481360000017297704147914648707_" class="st1" d="M573.1,802.8
	c0.9,7.4,13.1,12.5,13.1,12.5s-12.4-4.3-16,2c-1.7,2.9-3.9,5.4-6.5,7.4c3.7,2.4,8.3,5.4,12.2,8.1c3.4,2.4,15.4-5.4,15.4-5.4
	c-0.8,6.2-2.9,14.2-0.9,15.7c1.5,1.2,9.8,6.3,9.8,6.3c0.5-1.8,6.6-5.2,8.9-8.5c3.6-5.1-4.6-14.1-4.6-14.1s11.2,7.6,17.2,5.6
	c3.3-1.4,6-3.8,7.8-6.9c0.2-0.3,2.9-3.9,2.9-3.9s-4.6-4.9-5.4-6.1c-3.8-5.8-16.5-3.2-16.5-3.2s10.1-5,10.2-10.5
	c0.1-5.5-3-7.4-3.6-9.9c-0.2-1-0.3-2-0.3-3.1c-1.4,0.8-7.2-1.4-12.9,0.8c-5,2-6.7,15.9-6.7,15.9s-4-13.4-9.8-13.6
	c-3.8,0-7.7,0.2-11.5,0.7C576.4,794.9,572.8,800.9,573.1,802.8z"/>
<path id="シェイプ_1_00000042008590375759648840000017598460577477802904_" class="st3" d="M92.5,893.8c0.3,7.5,12,13.6,12,13.6
	s-12-5.3-16.1,0.7c-1.9,2.7-4.3,5-7.1,6.8c3.5,2.7,7.9,6,11.5,9c3.2,2.7,15.8-4.1,15.8-4.1c-1.3,6.1-4,13.9-2.2,15.6
	c1.4,1.3,9.3,7.1,9.3,7.1c0.7-1.8,7-4.7,9.6-7.8c4-4.8-3.4-14.4-3.4-14.4s10.5,8.5,16.7,7c3.4-1.1,6.3-3.3,8.3-6.2
	c0.2-0.3,3.2-3.6,3.2-3.6s-4.1-5.2-4.9-6.5c-3.3-6.1-16.1-4.5-16.1-4.5s10.5-4.1,11-9.6c0.5-5.5-2.4-7.6-2.7-10.1
	c-0.1-1-0.1-2.1,0-3.1c-1.5,0.6-7.1-2-12.9-0.3c-5.2,1.6-8,15.2-8,15.2s-2.8-13.6-8.6-14.4c-3.8-0.4-7.7-0.4-11.5-0.2
	C96.6,886.2,92.5,891.9,92.5,893.8z"/>
<path id="シェイプ_1_00000002346320924806207230000005251281118971439761_" class="st1" d="M193.2,1001.6
	c0.3,7.5,12,13.6,12,13.6s-12-5.3-16.1,0.7c-1.9,2.7-4.3,5-7.1,6.8c3.5,2.7,7.9,6,11.5,9c3.2,2.7,15.8-4.1,15.8-4.1
	c-1.3,6.1-4,13.9-2.2,15.6c1.4,1.3,9.3,7.1,9.3,7.1c0.7-1.8,7-4.7,9.6-7.8c4-4.8-3.4-14.4-3.4-14.4s10.5,8.5,16.7,7
	c3.4-1.1,6.3-3.3,8.3-6.2c0.2-0.3,3.2-3.6,3.2-3.6s-4.1-5.2-4.9-6.5c-3.3-6.1-16.1-4.5-16.1-4.5s10.5-4.1,11-9.6
	c0.5-5.5-2.4-7.6-2.7-10.1c-0.1-1-0.1-2.1,0-3.1c-1.5,0.6-7.1-2-12.9-0.3c-5.2,1.6-8,15.2-8,15.2s-2.8-13.6-8.6-14.4
	c-3.8-0.4-7.7-0.4-11.5-0.2C197.2,994,193.1,999.7,193.2,1001.6z"/>
<path id="シェイプ_1_00000036931055176629784330000007717746362451388597_" class="st4" d="M240.6,665.3
	c-1.3,7.4,8.9,15.8,8.9,15.8s-10.6-7.7-15.9-2.8c-2.5,2.2-5.3,4-8.4,5.1c2.8,3.4,6.4,7.6,9.4,11.3c2.6,3.3,16.3-0.7,16.3-0.7
	c-2.6,5.7-6.9,12.7-5.4,14.8c1.1,1.6,7.6,8.9,7.6,8.9c1.1-1.6,7.9-3.1,11-5.6c4.9-3.9-0.3-14.8-0.3-14.8s8.5,10.6,14.8,10.4
	c3.5-0.4,6.8-1.9,9.4-4.3c0.3-0.3,3.9-2.9,3.9-2.9s-2.9-6-3.4-7.4c-2-6.7-14.8-7.9-14.8-7.9s11.1-1.8,12.8-7.1
	c1.7-5.2-0.7-7.9-0.5-10.5c0.1-1,0.3-2,0.6-3c-1.6,0.3-6.5-3.5-12.5-3c-5.4,0.4-11,13.2-11,13.2s0.1-13.9-5.4-15.9
	c-3.7-1.2-7.4-2-11.2-2.6C246.1,658.7,240.9,663.4,240.6,665.3z"/>
<path id="シェイプ_1_00000108309664615227340870000004483309828124800164_" class="st1" d="M847.7,167.9
	c2.4,7.1,15.3,9.6,15.3,9.6s-13-1.7-15.2,5.2c-1.1,3.1-2.8,6-4.9,8.5c4.1,1.6,9.3,3.6,13.6,5.4c3.8,1.6,14-8.4,14-8.4
	c0.5,6.2,0,14.5,2.3,15.6c1.7,0.9,10.9,4.2,10.9,4.2c0.2-1.9,5.4-6.4,7-10.1c2.5-5.7-7.3-12.9-7.3-12.9s12.5,5.2,18,2
	c2.9-2,5.1-4.9,6.2-8.3c0.1-0.4,2.1-4.4,2.1-4.4s-5.5-3.9-6.5-4.9c-4.9-4.9-16.8,0.2-16.8,0.2s8.9-6.9,7.9-12.3s-4.4-6.6-5.5-9
	c-0.4-0.9-0.7-1.9-0.9-3c-1.2,1-7.4,0-12.5,3.4c-4.5,3-3.4,16.9-3.4,16.9s-6.6-12.3-12.3-11.4c-3.8,0.7-7.5,1.7-11.1,3
	C849.4,159.5,847.1,166.1,847.7,167.9z"/>
<path id="シェイプ_1_00000127008455257144449150000007642791187898822291_" class="st5" d="M857.8,674.6
	c0.9,7.4,13.1,12.5,13.1,12.5s-12.4-4.3-16,2c-1.7,2.9-3.9,5.4-6.5,7.4c3.7,2.4,8.3,5.4,12.2,8.1c3.4,2.4,15.4-5.4,15.4-5.4
	c-0.8,6.2-2.9,14.2-0.9,15.7c1.5,1.2,9.8,6.3,9.8,6.3c0.5-1.8,6.6-5.2,8.9-8.5c3.6-5.1-4.6-14.1-4.6-14.1s11.2,7.6,17.2,5.6
	c3.3-1.4,6-3.8,7.8-6.9c0.2-0.3,2.9-3.9,2.9-3.9s-4.6-4.9-5.4-6.1c-3.8-5.8-16.5-3.2-16.5-3.2s10.1-5,10.2-10.5
	c0.1-5.5-3-7.4-3.6-9.9c-0.2-1-0.3-2-0.3-3.1c-1.4,0.8-7.2-1.4-12.9,0.8c-5,2-6.7,15.9-6.7,15.9s-4-13.4-9.8-13.6
	c-3.8,0-7.7,0.2-11.5,0.7C861.1,666.7,857.5,672.7,857.8,674.6z"/>
<path id="シェイプ_1_00000031903809540654418200000005971147404363055256_" class="st2" d="M240.8,298.3
	c1.9,7.3,14.6,10.7,14.6,10.7s-12.9-2.6-15.6,4.1c-1.3,3-3.2,5.8-5.5,8.2c4,1.9,9,4.2,13.2,6.4c3.7,1.9,14.6-7.4,14.6-7.4
	c0,6.2-1,14.4,1.2,15.7c1.7,1,10.6,5,10.6,5c0.3-1.9,5.9-6,7.7-9.6c2.9-5.6-6.4-13.4-6.4-13.4s12.1,6.1,17.8,3.3
	c3.1-1.8,5.4-4.5,6.8-7.8c0.2-0.4,2.4-4.2,2.4-4.2s-5.2-4.2-6.1-5.3c-4.6-5.3-16.7-1-16.7-1s9.4-6.3,8.7-11.7
	c-0.6-5.4-3.9-6.9-4.8-9.3c-0.3-1-0.6-2-0.7-3c-1.3,0.9-7.3-0.5-12.7,2.5c-4.7,2.6-4.6,16.6-4.6,16.6s-5.7-12.7-11.5-12.2
	c-3.8,0.5-7.6,1.2-11.3,2.2C243.2,290,240.4,296.5,240.8,298.3z"/>
<path id="シェイプ_1_00000049932305569231554350000005943008456088082108_" class="st0" d="M566.3,478.8
	c0.9,7.4,13.1,12.5,13.1,12.5s-12.4-4.3-16,2c-1.7,2.9-3.9,5.4-6.6,7.4c3.7,2.4,8.3,5.4,12.2,8.1c3.4,2.4,15.4-5.4,15.4-5.4
	c-0.8,6.2-2.9,14.2-0.9,15.7c1.5,1.2,9.8,6.3,9.8,6.3c0.5-1.8,6.6-5.2,8.9-8.5c3.6-5.1-4.6-14.1-4.6-14.1s11.2,7.6,17.2,5.6
	c3.3-1.4,6-3.8,7.8-6.9c0.2-0.3,2.9-3.9,2.9-3.9s-4.6-4.9-5.4-6.1c-3.8-5.8-16.5-3.2-16.5-3.2s10.1-5,10.2-10.5s-3-7.4-3.6-9.9
	c-0.2-1-0.3-2-0.3-3.1c-1.4,0.8-7.2-1.4-12.9,0.8c-5,2-6.7,15.9-6.7,15.9s-4-13.4-9.8-13.6c-3.8,0-7.7,0.2-11.5,0.7
	C569.7,470.9,566.1,476.9,566.3,478.8z"/>
<path id="シェイプ_1_00000052790606041747102380000005592417114976630943_" class="st0" d="M463.9,242.7
	c1,7.4,13.2,12.3,13.2,12.3s-12.5-4.1-16,2.2c-1.7,2.9-3.8,5.4-6.5,7.5c3.7,2.4,8.4,5.3,12.3,7.9c3.5,2.3,15.4-5.6,15.4-5.6
	c-0.7,6.2-2.7,14.2-0.7,15.7c1.5,1.2,9.9,6.2,9.9,6.2c0.5-1.8,6.5-5.3,8.8-8.6c3.5-5.2-4.8-14-4.8-14s11.3,7.5,17.3,5.4
	c3.2-1.4,5.9-3.9,7.7-7c0.2-0.3,2.9-3.9,2.9-3.9s-4.6-4.8-5.5-6c-3.9-5.8-16.5-3-16.5-3s10-5.1,10-10.6c0-5.5-3.1-7.3-3.7-9.8
	c-0.2-1-0.3-2-0.3-3.1c-1.4,0.8-7.2-1.4-12.9,1c-5,2-6.5,15.9-6.5,15.9s-4.1-13.3-9.9-13.5c-3.8,0-7.7,0.3-11.5,0.9
	C467.2,234.7,463.6,240.8,463.9,242.7z"/>
<path id="シェイプ_1_00000078767021931854294880000016343193211125543810_" class="st1" d="M244.5,68.5
	c1.7,7.3,14.2,11.2,14.2,11.2s-12.8-3-15.7,3.6c-1.4,3-3.4,5.7-5.8,8c3.9,2.1,8.8,4.5,13,6.8c3.6,2,14.8-6.9,14.8-6.9
	c-0.2,6.2-1.5,14.4,0.7,15.7c1.6,1,10.4,5.3,10.4,5.3c0.4-1.9,6.1-5.8,8-9.4c3.1-5.5-5.9-13.6-5.9-13.6s11.9,6.5,17.6,3.9
	c3.1-1.7,5.6-4.4,7.1-7.6c0.2-0.4,2.5-4.2,2.5-4.2s-5-4.4-6-5.5c-4.4-5.4-16.7-1.6-16.7-1.6s9.6-6,9.1-11.4s-3.7-7-4.5-9.5
	c-0.3-1-0.5-2-0.6-3c-1.3,0.9-7.3-0.7-12.7,2c-4.8,2.5-5.1,16.4-5.1,16.4s-5.2-12.9-11.1-12.6c-3.8,0.3-7.6,1-11.3,1.9
	C247,60.3,244,66.6,244.5,68.5z"/>
<path id="シェイプ_1_00000045581042716837574270000018191872277714104492_" class="st2" d="M1616.2,103.5
	c3.8,6.5,16.9,6.4,16.9,6.4s-13.1,0.9-13.9,8.1c-0.4,3.3-1.5,6.5-3.2,9.3c4.3,0.8,9.8,1.7,14.4,2.6c4.1,0.9,12.1-11,12.1-11
	c1.7,6,2.9,14.2,5.3,14.8c1.9,0.5,11.5,2,11.5,2c-0.2-1.9,4.1-7.4,4.9-11.3c1.3-6.1-9.7-11.2-9.7-11.2s13.3,2.7,18-1.5
	c2.5-2.5,4-5.8,4.5-9.4c0.1-0.4,1.2-4.7,1.2-4.7s-6.1-2.7-7.3-3.5c-5.8-3.9-16.4,3.5-16.4,3.5s7.4-8.5,5.3-13.6
	c-2.1-5.1-5.6-5.6-7.1-7.7c-0.6-0.9-1.1-1.8-1.5-2.7c-1,1.2-7.2,1.5-11.6,5.7c-3.9,3.8,0,17.2,0,17.2s-8.9-10.8-14.3-8.7
	c-3.6,1.5-7,3.2-10.3,5.2C1616.3,94.9,1615.3,101.8,1616.2,103.5z"/>
<path id="シェイプ_1_00000062875697182743640470000010099656186031783594_" class="st2" d="M1473.9,232.9
	c3.8,6.5,16.9,6.4,16.9,6.4s-13.1,0.9-13.9,8.1c-0.4,3.3-1.5,6.5-3.2,9.3c4.3,0.8,9.8,1.7,14.4,2.6c4.1,0.9,12.1-11,12.1-11
	c1.7,6,2.9,14.2,5.3,14.8c1.9,0.5,11.5,2,11.5,2c-0.2-1.9,4.1-7.4,4.9-11.3c1.3-6.1-9.7-11.2-9.7-11.2s13.3,2.7,18-1.5
	c2.5-2.5,4-5.8,4.5-9.4c0.1-0.4,1.2-4.7,1.2-4.7s-6.1-2.7-7.3-3.5c-5.8-3.9-16.4,3.5-16.4,3.5s7.4-8.5,5.3-13.6s-5.6-5.6-7.1-7.7
	c-0.6-0.9-1.1-1.8-1.5-2.7c-1,1.2-7.2,1.5-11.6,5.7c-3.9,3.8,0,17.2,0,17.2s-8.9-10.8-14.3-8.7c-3.6,1.5-7,3.2-10.3,5.2
	C1473.9,224.3,1472.9,231.2,1473.9,232.9z"/>
<path id="シェイプ_1_00000109028121918121657690000012822008823705281712_" class="st3" d="M1503.7,487
	c-1,7.4,9.4,15.5,9.4,15.5s-10.9-7.4-15.9-2.2c-2.4,2.3-5.2,4.2-8.2,5.4c2.9,3.3,6.7,7.3,9.7,11c2.7,3.2,16.3-1.2,16.3-1.2
	c-2.4,5.8-6.5,12.9-4.9,14.9c1.2,1.5,7.9,8.6,7.9,8.6c1-1.6,7.7-3.3,10.8-5.9c4.8-4-0.8-14.8-0.8-14.8s8.8,10.3,15.1,9.9
	c3.5-0.5,6.8-2.1,9.3-4.6c0.3-0.3,3.8-3,3.8-3s-3.1-5.9-3.6-7.3c-2.2-6.6-15.1-7.3-15.1-7.3s11.1-2.2,12.5-7.5
	c1.5-5.3-1-7.9-0.9-10.5c0.1-1,0.2-2.1,0.5-3c-1.5,0.4-6.6-3.3-12.6-2.6c-5.4,0.6-10.6,13.6-10.6,13.6s-0.4-13.9-5.9-15.7
	c-3.7-1-7.5-1.8-11.3-2.3C1509,480.3,1504,485.2,1503.7,487z"/>
<path id="シェイプ_1_00000175296923200083674620000004410714889037500551_" class="st1" d="M1553.7,904.4
	c6,4.5,18.1-0.6,18.1-0.6s-11.7,5.9-9.7,12.8c0.9,3.2,1.1,6.5,0.7,9.8c4.3-0.9,9.7-2.2,14.3-3.1c4.1-0.8,6.9-14.8,6.9-14.8
	c3.9,4.9,8.1,12,10.6,11.6c1.9-0.3,11.4-2.6,11.4-2.6c-0.9-1.7,0.9-8.4,0.1-12.3c-1.2-6.1-13.3-6.6-13.3-6.6s13.3-2.7,16-8.4
	c1.3-3.3,1.5-6.9,0.5-10.4c-0.1-0.4-0.7-4.8-0.7-4.8s-6.7-0.1-8.1-0.4c-6.8-1.3-13.8,9.6-13.8,9.6s3.5-10.7-0.4-14.6
	c-3.9-3.9-7.4-3-9.6-4.3c-0.9-0.6-1.7-1.2-2.4-1.9c-0.4,1.5-6.1,4.2-8.4,9.8c-2.1,5,6.7,15.9,6.7,15.9s-12.3-6.5-16.6-2.5
	c-2.7,2.7-5.2,5.6-7.5,8.7C1550.4,896.5,1552.2,903.2,1553.7,904.4z"/>
<path id="シェイプ_1_00000042004209609475937990000014500141319507529899_" class="st1" d="M44.9,593.8
	c-1.3,7.4,8.9,15.8,8.9,15.8s-10.6-7.7-15.9-2.8c-2.5,2.2-5.3,4-8.4,5.1c2.8,3.4,6.4,7.6,9.4,11.3c2.6,3.3,16.3-0.7,16.3-0.7
	c-2.6,5.7-6.9,12.7-5.4,14.8c1.1,1.6,7.6,8.9,7.6,8.9c1.1-1.6,7.9-3.1,11-5.6c4.9-3.9-0.3-14.8-0.3-14.8s8.5,10.6,14.8,10.4
	c3.5-0.4,6.8-1.9,9.4-4.3c0.3-0.3,3.9-2.9,3.9-2.9s-2.9-6-3.4-7.4c-2-6.7-14.8-7.9-14.8-7.9s11.1-1.8,12.8-7.1
	c1.7-5.2-0.7-7.9-0.5-10.5c0.1-1,0.3-2,0.6-3c-1.6,0.3-6.5-3.5-12.5-3c-5.4,0.4-11,13.2-11,13.2s0.1-13.9-5.4-15.9
	c-3.7-1.2-7.4-2-11.2-2.6C50.4,587.2,45.2,591.9,44.9,593.8z"/>
<path id="シェイプ_1_00000107578941989815946570000005549644242385544123_" class="st1" d="M1850.8,1050.5
	c5.8-4.7,3.7-17.7,3.7-17.7s2.9,12.8,10.1,12.5c3.3-0.1,6.6,0.5,9.7,1.7c0.1-4.4,0.2-9.9,0.4-14.6c0.2-4.2-12.7-10.3-12.7-10.3
	c5.7-2.6,13.6-5,13.8-7.5c0.2-1.9,0.2-11.7,0.2-11.7c-1.8,0.5-7.9-2.9-11.9-3.1c-6.2-0.3-9.6,11.3-9.6,11.3s0.6-13.5-4.3-17.6
	c-2.9-2-6.4-3.1-9.9-3c-0.4,0-4.8-0.4-4.8-0.4s-1.7,6.5-2.3,7.8c-2.9,6.3,6,15.7,6,15.7s-9.6-6-14.3-3.1c-4.7,2.8-4.7,6.4-6.5,8.2
	c-0.8,0.7-1.6,1.3-2.5,1.9c1.4,0.8,2.6,6.9,7.5,10.5c4.3,3.2,17-2.6,17-2.6s-9.3,10.4-6.4,15.5c2,3.3,4.2,6.4,6.7,9.4
	C1842.3,1051.8,1849.3,1051.7,1850.8,1050.5z"/>
<path id="シェイプ_1_00000003818782042726113260000001787542133061640878_" class="st3" d="M1652.9,382.2
	c-5.4,5.2-2.1,18-2.1,18s-4.1-12.5-11.2-11.5c-3.3,0.4-6.6,0.1-9.8-0.8c0.3,4.4,0.8,9.9,1,14.6c0.2,4.2,13.6,9,13.6,9
	c-5.4,3.1-13,6.3-13.1,8.8c0,1.9,0.9,11.6,0.9,11.6c1.8-0.7,8.2,2.1,12.2,1.9c6.2-0.3,8.5-12.2,8.5-12.2s0.7,13.5,5.9,17.1
	c3.1,1.8,6.6,2.5,10.2,2c0.4,0,4.9,0,4.9,0s1.1-6.6,1.6-8c2.3-6.6-7.4-15-7.4-15s10.1,5,14.5,1.8s4.1-6.8,5.7-8.8
	c0.7-0.8,1.4-1.5,2.3-2.1c-1.4-0.7-3.2-6.6-8.4-9.8c-4.6-2.8-16.7,4.2-16.7,4.2s8.3-11.2,5-16c-2.3-3.1-4.8-6-7.5-8.7
	C1661.2,380.1,1654.2,380.8,1652.9,382.2z"/>
</svg>
