<?xml version="1.0" encoding="utf-8"?>
<!-- Generator: Adobe Illustrator 25.4.1, SVG Export Plug-In . SVG Version: 6.00 Build 0)  -->
<svg version="1.1" id="图层_1" xmlns="http://www.w3.org/2000/svg" xmlns:xlink="http://www.w3.org/1999/xlink" x="0px" y="0px"
	 viewBox="0 0 200 200" style="enable-background:new 0 0 200 200;" xml:space="preserve">
<style type="text/css">
	.st0{display:none;}
	.st1{fill:none;stroke:#000000;stroke-width:10;stroke-miterlimit:10;}
</style>
<path d="M100,34.4c-36.2,0-65.6,29.4-65.6,65.6s29.4,65.6,65.6,65.6s65.6-29.4,65.6-65.6S136.2,34.4,100,34.4z M100,156.2
	c-31.1,0-56.2-25.2-56.2-56.2S68.9,43.8,100,43.8S156.2,69,156.2,100S131.1,156.2,100,156.2z"/>
<path class="st0" d="M118.8,115.6c0,1.7-1.4,3.1-3.1,3.1h-3.1c-1.7,0-3.1-1.4-3.1-3.1V84.4c0-1.7,1.4-3.1,3.1-3.1h3.1
	c1.7,0,3.1,1.4,3.1,3.1V115.6z"/>
<path class="st0" d="M90.6,115.6c0,1.7-1.4,3.1-3.1,3.1h-3.1c-1.7,0-3.1-1.4-3.1-3.1V84.4c0-1.7,1.4-3.1,3.1-3.1h3.1
	c1.7,0,3.1,1.4,3.1,3.1V115.6z"/>
<g>
	<path class="st1" d="M88.5,80.9c-2.8-1.6-5-0.2-5,2.9V116c0,3.3,2.3,4.6,5,2.9l28.2-16.1c2.8-1.6,2.8-4.2,0-5.8L88.5,80.9z"/>
</g>
</svg>
